<?xml version="1.0" standalone="no"?>
<!DOCTYPE svg PUBLIC "-//W3C//DTD SVG 20010904//EN"
 "http://www.w3.org/TR/2001/REC-SVG-20010904/DTD/svg10.dtd">
<svg version="1.0" xmlns="http://www.w3.org/2000/svg"
 width="260.000000pt" height="260.000000pt" viewBox="0 0 260.000000 260.000000"
 preserveAspectRatio="xMidYMid meet">
<metadata>
Created by potrace 1.11, written by Peter Selinger 2001-2013
</metadata>
<g transform="translate(0.000000,260.000000) scale(0.100000,-0.100000)"
fill="#000000" stroke="none">
<path d="M764 2286 c-3 -8 -4 -25 -2 -38 3 -22 8 -23 106 -28 88 -4 106 -8
118 -24 12 -17 14 -106 14 -532 0 -471 -1 -517 -19 -572 -23 -74 -62 -127
-115 -155 -33 -18 -58 -22 -132 -22 -83 0 -94 2 -139 30 -64 40 -107 100 -109
154 -1 57 13 67 74 55 62 -13 101 2 130 48 35 58 19 156 -31 192 -91 64 -207
28 -260 -80 -17 -36 -22 -65 -22 -128 -1 -106 28 -171 114 -250 74 -69 151
-96 270 -96 176 0 297 56 381 178 56 81 58 100 58 639 0 485 3 536 33 555 7 4
45 8 85 8 l72 0 0 40 0 40 -310 0 c-260 0 -312 -2 -316 -14z"/>
<path d="M2159 1596 c-25 -6 -66 -27 -92 -45 l-46 -34 -61 26 c-85 37 -165 48
-262 36 -127 -16 -220 -74 -273 -170 -25 -46 -29 -65 -29 -126 1 -94 29 -152
106 -212 l55 -45 -46 -22 c-91 -44 -124 -89 -124 -168 0 -85 31 -124 133 -172
l45 -21 -35 -8 c-57 -12 -129 -56 -152 -93 -56 -91 3 -200 139 -253 88 -34
307 -39 424 -10 176 44 279 151 279 288 0 53 -22 108 -58 146 -64 68 -125 80
-383 78 -116 -1 -217 3 -232 8 -68 26 -72 111 -7 143 26 14 60 18 136 18 56 0
125 5 155 10 118 22 238 101 282 184 17 33 22 58 22 127 0 80 -2 89 -33 140
l-34 53 23 19 c32 26 69 18 89 -18 22 -41 55 -56 91 -43 75 26 63 130 -17 164
-39 16 -36 16 -95 0z m-310 -100 c42 -22 89 -81 102 -128 16 -60 7 -177 -18
-224 -49 -95 -159 -131 -253 -82 -36 18 -51 35 -74 80 -24 48 -29 69 -29 135
0 113 36 187 108 219 40 18 129 17 164 0z m183 -883 c110 -50 103 -166 -13
-232 -69 -39 -163 -55 -280 -48 -146 8 -219 43 -238 115 -15 51 6 100 56 135
66 47 120 57 283 54 124 -2 152 -5 192 -24z"/>
</g>
</svg>
